<?xml version="1.0" standalone="no"?>
<!DOCTYPE svg PUBLIC "-//W3C//DTD SVG 20010904//EN"
 "http://www.w3.org/TR/2001/REC-SVG-20010904/DTD/svg10.dtd">
<svg version="1.0" xmlns="http://www.w3.org/2000/svg"
 width="4116.000000pt" height="2892.000000pt" viewBox="0 0 4116.000000 2892.000000"
 preserveAspectRatio="xMidYMid meet">

<g transform="translate(0.000000,2892.000000) scale(0.100000,-0.100000)"
fill="#000000" stroke="none">
<path d="M22510 27665 c-165 -17 -268 -32 -364 -56 -44 -10 -81 -17 -83 -15
-12 12 -356 -120 -423 -162 -19 -12 -38 -22 -42 -22 -8 0 -164 -94 -270 -163
-31 -20 -59 -37 -62 -37 -5 0 -65 -45 -166 -125 -76 -60 -328 -330 -318 -341
3 -3 43 0 89 5 46 6 122 13 169 16 l86 6 114 116 c209 210 390 342 641 467
220 110 446 177 729 217 94 14 650 19 650 6 0 -4 12 -7 28 -7 47 2 151 -8 162
-15 6 -3 20 -5 33 -4 12 1 29 -1 37 -4 30 -11 190 -34 190 -26 0 4 -17 13 -37
20 -21 7 -49 19 -62 27 -22 15 -25 14 -39 -4 -12 -15 -14 -16 -9 -2 3 10 2 20
-4 23 -5 4 -8 2 -7 -3 2 -6 0 -10 -4 -11 -21 -3 -29 0 -24 8 3 4 -12 6 -33 4
-24 -3 -51 1 -69 11 -19 10 -33 12 -37 6 -4 -6 -16 -4 -31 6 -20 14 -27 14
-41 3 -11 -10 -14 -10 -9 -1 5 8 -2 12 -24 12 -17 0 -29 3 -27 8 3 4 -29 6
-71 4 -59 -2 -73 0 -62 9 13 9 12 10 -3 5 -9 -3 -41 -1 -70 5 -28 5 -69 10
-89 11 -21 0 -36 3 -34 7 7 11 -287 8 -414 -4z"/>
<path d="M23726 27525 c-3 -10 16 -18 72 -30 248 -53 488 -126 722 -219 85
-33 161 -60 168 -60 6 1 12 -2 12 -6 0 -9 112 -60 131 -60 8 1 -11 12 -41 26
-30 14 -57 30 -60 34 -3 5 -18 11 -34 14 -15 3 -34 10 -42 17 -8 6 -14 8 -14
3 0 -4 -5 -3 -12 4 -7 7 -20 12 -31 12 -10 0 -16 4 -13 8 3 5 -18 17 -47 27
-29 10 -62 25 -74 33 -13 8 -23 11 -23 8 0 -4 -11 1 -25 10 -14 9 -41 18 -62
21 -20 3 -53 13 -72 24 -20 10 -45 20 -56 22 -24 5 -54 15 -76 27 -10 5 -21 4
-29 -3 -10 -9 -11 -9 -6 1 5 8 0 12 -14 12 -11 0 -38 9 -58 19 -21 11 -59 22
-85 24 -25 3 -51 8 -57 12 -5 3 -10 2 -10 -3 0 -6 -17 -1 -37 9 -21 11 -46 18
-57 15 -10 -3 -29 -1 -41 4 -17 6 -25 5 -29 -5z"/>
<path d="M24925 27100 c3 -5 8 -10 11 -10 2 0 4 5 4 10 0 6 -5 10 -11 10 -5 0
-7 -4 -4 -10z"/>
<path d="M20965 25958 c-44 -4 -116 -13 -160 -19 -44 -6 -89 -12 -100 -14 -11
-1 -31 -5 -45 -8 -14 -3 -63 -13 -110 -22 -128 -24 -296 -74 -375 -110 -170
-79 -211 -97 -223 -99 -8 -1 -18 -9 -23 -17 -5 -8 -9 -11 -9 -7 0 11 -120 -53
-120 -64 0 -5 -4 -7 -9 -4 -5 4 -23 -5 -39 -19 -16 -14 -36 -25 -44 -25 -13 0
-27 -9 -86 -56 -15 -12 -37 -24 -50 -28 -12 -4 -20 -11 -18 -15 5 -8 -30 -42
-42 -40 -28 5 -52 -6 -87 -37 -22 -20 -47 -41 -55 -47 -8 -7 -21 -24 -29 -40
-8 -15 -17 -23 -21 -18 -3 6 -11 6 -20 1 -8 -6 -11 -10 -7 -10 4 0 3 -9 -3
-20 -6 -11 -14 -19 -18 -16 -4 2 -16 -3 -27 -11 -20 -16 -20 -16 0 -9 14 5 9
-4 -15 -27 -19 -19 -39 -33 -44 -33 -5 1 -15 -9 -21 -21 -9 -18 -14 -20 -24
-10 -7 7 -11 7 -9 1 2 -6 -10 -23 -27 -38 -16 -15 -23 -25 -15 -21 10 4 9 2
-2 -8 -10 -8 -15 -17 -11 -20 3 -4 -1 -7 -11 -7 -11 0 -14 -4 -10 -12 5 -8 2
-9 -10 -5 -10 4 -15 3 -11 -3 3 -6 -1 -13 -9 -16 -9 -3 -16 -13 -16 -21 0 -9
18 1 48 27 290 253 480 391 739 536 169 95 446 214 461 200 3 -3 -3 -8 -12
-12 -9 -3 -16 -12 -16 -20 0 -7 -7 -34 -15 -59 -9 -25 -17 -59 -18 -75 -1 -16
-5 -30 -9 -30 -5 0 -8 -14 -8 -31 0 -16 -5 -51 -11 -76 -9 -33 -9 -47 -1 -52
9 -5 9 -23 1 -69 -6 -34 -14 -60 -18 -58 -3 2 -7 -13 -7 -34 -1 -20 -9 -53
-17 -71 -8 -19 -20 -55 -27 -81 -7 -27 -16 -48 -20 -48 -4 0 -6 -12 -4 -26 1
-14 -3 -27 -10 -30 -6 -2 -13 -17 -14 -32 -1 -15 -14 -62 -28 -105 -14 -43
-23 -84 -20 -92 3 -10 0 -12 -12 -8 -14 6 -15 4 -6 -8 9 -11 9 -17 -1 -26 -7
-6 -15 -10 -18 -7 -2 3 -2 -7 0 -21 3 -14 1 -31 -5 -38 -13 -17 -33 -113 -26
-131 3 -8 0 -17 -7 -22 -8 -5 -10 -3 -4 6 5 9 4 11 -4 6 -9 -6 -9 -11 0 -22 9
-11 8 -15 -5 -20 -9 -3 -16 -14 -16 -23 0 -9 -11 -50 -24 -93 -16 -49 -20 -80
-14 -86 6 -6 3 -14 -9 -23 -10 -8 -19 -25 -20 -39 -1 -40 -53 -223 -70 -249
-9 -15 -10 -21 -2 -16 8 6 10 4 3 -6 -4 -8 -10 -18 -11 -24 -14 -58 -164 -471
-201 -555 -9 -19 -16 -44 -17 -54 -1 -11 -7 -22 -13 -24 -7 -2 -12 -10 -12
-17 0 -8 -16 -62 -35 -120 -31 -94 -85 -287 -85 -307 0 -4 30 -17 68 -28 37
-11 74 -23 83 -26 13 -3 19 8 28 58 208 1077 548 2195 895 2939 l35 75 98 23
c233 54 348 65 668 66 236 0 329 -4 435 -18 306 -42 616 -119 890 -224 158
-60 459 -203 583 -276 42 -25 77 -43 77 -38 0 4 -11 14 -25 21 -14 7 -25 17
-25 22 0 4 -6 8 -14 8 -7 0 -24 10 -38 23 -34 30 -58 45 -90 58 -16 6 -28 15
-28 21 0 5 -4 6 -10 3 -5 -3 -10 -2 -10 2 0 10 -70 49 -82 45 -4 -1 -8 3 -8 9
0 6 -7 8 -17 5 -10 -4 -14 -4 -11 -1 4 4 -32 27 -80 52 -48 25 -92 49 -98 54
-6 5 -13 7 -16 4 -5 -5 -103 33 -206 81 -29 13 -59 24 -66 24 -13 0 -134 34
-166 47 -16 6 -30 10 -57 17 -10 3 -20 5 -23 7 -3 1 -9 3 -15 4 -80 13 -110
19 -165 35 -36 11 -92 21 -125 24 -65 5 -121 14 -145 22 -8 3 -95 12 -193 19
-191 15 -442 17 -572 3z"/>
<path d="M5771 25198 c-92 -10 -87 -18 11 -18 101 0 227 -21 333 -54 41 -13
75 -22 75 -20 0 10 -139 72 -175 78 -22 4 -51 9 -65 12 -44 8 -113 9 -179 2z"/>
<path d="M18987 24943 c-4 -3 -7 -11 -7 -17 0 -6 5 -5 12 2 6 6 9 14 7 17 -3
3 -9 2 -12 -2z"/>
<path d="M19840 24219 c0 -5 5 -7 10 -4 6 3 10 8 10 11 0 2 -4 4 -10 4 -5 0
-10 -5 -10 -11z"/>
<path d="M2699 24198 c-5 -26 -3 -37 14 -72 23 -47 94 -153 109 -162 15 -9 1
47 -29 115 -33 75 -39 87 -47 83 -4 -2 -16 7 -26 20 -11 13 -20 20 -21 16z"/>
<path d="M27962 22600 c0 -14 2 -19 5 -12 2 6 2 18 0 25 -3 6 -5 1 -5 -13z"/>
<path d="M27946 22561 c4 -14 2 -21 -4 -17 -5 3 -8 -7 -6 -24 2 -16 -1 -32 -6
-35 -6 -3 -10 -11 -10 -17 0 -6 7 -5 18 3 14 11 14 10 -2 -8 -16 -20 -17 -25
-5 -40 12 -14 12 -16 0 -8 -11 6 -13 2 -9 -19 4 -18 1 -26 -8 -26 -8 0 -14 -5
-14 -11 0 -5 5 -7 11 -3 8 4 8 1 1 -13 -13 -24 -44 -176 -45 -220 0 -18 -4
-33 -7 -33 -8 0 -19 -58 -25 -122 -3 -40 -11 -75 -63 -283 -19 -77 -43 -151
-53 -164 -11 -13 -27 -49 -35 -80 -9 -30 -23 -61 -30 -69 -8 -7 -14 -24 -14
-38 0 -13 -4 -32 -9 -42 -5 -9 -26 -73 -46 -142 -21 -69 -53 -171 -71 -227
-19 -56 -31 -110 -27 -119 4 -10 2 -15 -3 -11 -11 6 -31 -48 -62 -168 -57
-215 -75 -281 -82 -290 -8 -10 -26 -104 -22 -117 1 -5 -3 -8 -10 -8 -8 0 -8
-3 -3 -9 12 -12 265 -102 265 -95 0 4 30 139 66 303 165 746 264 1343 314
1900 23 255 23 264 11 257 -5 -4 -12 0 -15 6 -3 7 -3 2 0 -11z"/>
<path d="M8800 21978 c0 -3 22 -52 49 -109 26 -57 79 -174 116 -259 37 -85 71
-159 76 -164 19 -21 -121 335 -158 401 -33 59 -83 138 -83 131z"/>
<path d="M17610 21916 c0 -2 14 -37 31 -77 102 -238 139 -424 142 -705 l2
-163 -29 -30 c-21 -22 -42 -32 -75 -36 -25 -4 -62 -11 -81 -17 -19 -5 -64 -13
-100 -18 -36 -5 -103 -14 -150 -20 -47 -6 -101 -15 -120 -20 -19 -5 -61 -14
-94 -21 -32 -7 -60 -19 -63 -26 -3 -8 -12 -12 -19 -9 -8 3 -13 0 -11 -7 4 -24
783 -303 1832 -657 264 -89 565 -191 670 -226 104 -35 194 -62 200 -60 5 2 18
-3 28 -12 11 -10 17 -11 17 -4 0 7 -4 12 -10 12 -5 0 -10 5 -10 11 0 5 5 7 12
3 8 -5 9 -2 5 10 -6 16 21 86 33 86 4 0 5 12 3 28 -4 22 -2 24 7 12 9 -12 10
-10 5 10 -4 14 -11 29 -16 34 -10 11 -29 -34 -29 -68 0 -25 -39 -109 -40 -86
0 12 -3 11 -11 -2 -5 -10 -17 -18 -25 -18 -11 0 -9 7 8 33 13 17 27 35 33 39
5 4 6 10 3 14 -4 4 -1 16 7 27 10 15 12 42 9 111 -3 50 -7 96 -9 103 -2 6 2
17 10 23 13 11 9 54 -5 45 -9 -6 -20 19 -20 46 0 10 -4 19 -10 19 -5 0 -10 7
-10 15 0 8 -7 15 -15 15 -20 0 -19 -17 1 -28 9 -5 15 -14 13 -20 -2 -6 -20 4
-39 22 -40 38 -65 76 -50 76 5 0 10 -4 10 -10 0 -5 5 -10 10 -10 6 0 10 7 10
15 0 25 -23 65 -37 65 -8 0 -13 6 -12 13 3 28 -2 39 -16 33 -9 -3 -15 0 -15 8
0 8 -7 16 -15 20 -8 3 -15 11 -16 18 0 7 -14 24 -32 38 -17 14 -28 19 -24 13
13 -21 0 -15 -28 13 -14 14 -30 22 -35 19 -6 -3 -10 -3 -10 2 0 4 -17 19 -38
33 -20 14 -39 27 -42 30 -16 17 -78 58 -95 64 -11 3 -35 20 -54 36 -18 17 -39
30 -46 30 -32 0 -268 226 -423 405 -152 175 -174 197 -264 257 -43 29 -78 56
-78 60 0 4 -5 8 -11 8 -6 0 -25 11 -43 25 -82 65 -198 145 -211 145 -5 0 -68
23 -140 50 -71 27 -136 50 -142 50 -7 0 -13 5 -13 10 0 6 -5 10 -10 10 -16 0
-138 58 -145 69 -3 6 -12 8 -19 5 -8 -3 -17 -1 -21 5 -6 10 -25 16 -25 7z
m1980 -1466 c0 -5 -4 -10 -10 -10 -5 0 -10 5 -10 10 0 6 5 10 10 10 6 0 10 -4
10 -10z"/>
<path d="M5362 21523 c8 -44 5 -194 -8 -318 -7 -75 -16 -465 -17 -767 0 -200
3 -271 12 -282 7 -8 10 -24 6 -36 -3 -11 -3 -20 2 -20 5 0 10 -12 11 -27 1
-15 6 -29 11 -33 5 -3 12 -17 16 -32 7 -26 15 -21 353 235 428 322 401 301
401 308 1 7 -402 790 -424 825 -8 12 -41 30 -81 44 -75 25 -202 89 -251 126
-17 13 -34 24 -36 24 -2 0 0 -21 5 -47z"/>
<path d="M9046 21417 c3 -10 9 -15 12 -12 3 3 0 11 -7 18 -10 9 -11 8 -5 -6z"/>
<path d="M9077 21329 c4 -13 8 -18 11 -10 2 7 -1 18 -6 23 -8 8 -9 4 -5 -13z"/>
<path d="M9131 21144 c0 -11 3 -14 6 -6 3 7 2 16 -1 19 -3 4 -6 -2 -5 -13z"/>
<path d="M9147 21059 c6 -53 6 -54 -14 -36 -20 18 -43 23 -43 9 0 -47 84 -272
101 -272 19 0 9 156 -15 249 -29 109 -38 125 -29 50z"/>
<path d="M19675 20360 c-9 -29 5 -42 27 -26 17 12 17 14 -1 30 -18 17 -20 16
-26 -4z"/>
<path d="M19767 20283 c7 -20 23 -33 38 -33 6 1 2 5 -7 11 -10 5 -18 17 -18
24 0 8 -4 15 -10 15 -5 0 -6 -8 -3 -17z"/>
<path d="M19783 20090 c1 -46 3 -78 5 -70 3 8 10 18 16 23 8 5 8 9 -1 15 -6 4
-14 32 -16 62 -2 36 -4 25 -4 -30z"/>
<path d="M19802 20128 c2 -24 7 -42 13 -40 13 5 24 -28 18 -54 -4 -18 0 -21
20 -21 l25 0 -25 44 c-24 43 -24 52 -8 98 5 16 5 17 -4 5 -7 -10 -11 -11 -11
-2 0 6 -7 12 -16 12 -12 0 -14 -9 -12 -42z"/>
<path d="M19891 19970 c0 -40 2 -42 11 -22 8 16 8 28 0 45 -9 19 -11 17 -11
-23z"/>
<path d="M16580 19935 c0 -26 -86 -338 -101 -365 -26 -48 -59 -130 -53 -130 3
0 -2 -12 -10 -27 -58 -104 -140 -398 -212 -763 -3 -14 -16 -71 -30 -127 -13
-56 -24 -106 -23 -110 3 -12 -11 -64 -27 -100 -8 -17 -14 -38 -14 -47 0 -32
-63 -205 -73 -199 -5 3 -8 0 -5 -8 3 -8 -1 -20 -9 -27 -11 -12 -17 -46 -16
-89 1 -7 -3 -11 -7 -8 -7 4 -50 -118 -50 -141 0 -4 -6 -15 -13 -23 -8 -9 -21
-37 -30 -62 -20 -53 -50 -78 -162 -132 -44 -21 -93 -52 -108 -69 -25 -28 -28
-37 -26 -92 5 -110 22 -167 63 -211 l38 -40 77 1 c93 0 137 14 222 71 120 78
179 183 226 402 14 64 34 148 44 186 11 39 22 77 24 85 2 8 15 56 30 105 32
116 115 487 129 585 2 8 6 30 10 49 5 18 9 45 11 60 1 14 12 73 24 131 19 97
30 150 66 330 8 36 19 92 25 125 6 33 16 76 21 96 5 20 9 55 9 79 0 23 7 70
16 103 14 54 14 74 3 162 -8 55 -13 106 -12 112 0 7 -3 10 -8 7 -5 -3 -9 0 -9
6 0 6 -5 8 -12 4 -8 -5 -7 0 2 11 8 10 10 16 4 12 -7 -4 -15 0 -18 9 -4 10 -2
13 7 8 9 -6 9 -5 0 8 -7 8 -10 18 -6 21 3 4 1 7 -5 7 -7 0 -12 -2 -12 -5z"/>
<path d="M6490 19885 c0 -3 17 -40 39 -83 107 -213 273 -602 256 -602 -2 0
-47 53 -99 118 -133 165 -173 208 -182 199 -20 -19 42 -170 133 -325 24 -41
43 -75 43 -77 0 -2 19 -31 43 -65 23 -34 49 -74 58 -90 9 -16 23 -40 32 -53 8
-13 24 -51 35 -83 46 -138 54 -141 76 -34 10 52 10 73 0 114 -17 67 -57 180
-66 187 -11 8 -78 164 -78 182 0 8 -21 64 -46 123 -25 60 -46 115 -47 122 0 6
-4 12 -9 12 -4 0 -8 8 -8 18 0 10 -3 22 -7 26 -5 4 -8 11 -9 14 0 4 -9 25 -18
47 -10 22 -27 60 -37 85 -11 25 -38 73 -61 108 -37 58 -48 70 -48 57z"/>
<path d="M19815 19860 c-3 -5 -1 -10 4 -10 6 0 11 5 11 10 0 6 -2 10 -4 10 -3
0 -8 -4 -11 -10z"/>
<path d="M19835 19840 c-3 -5 -12 -7 -20 -3 -18 6 -19 -6 -1 -29 7 -10 16 -15
20 -11 4 4 11 1 16 -7 8 -12 10 -10 10 9 0 15 5 21 13 18 7 -3 13 3 13 14 0
17 -2 17 -18 2 -16 -15 -22 -11 -19 10 1 10 -7 9 -14 -3z m11 -22 c3 -4 -1 -5
-10 -4 -8 1 -18 5 -22 8 -3 4 1 5 10 4 8 -1 18 -5 22 -8z"/>
<path d="M37708 19119 c-50 -8 -148 -37 -160 -48 -4 -3 46 -7 110 -8 386 -5
840 -219 1293 -610 256 -222 511 -534 649 -796 37 -70 62 -95 30 -29 -87 175
-114 228 -122 233 -5 3 -9 8 -8 10 5 16 -131 246 -160 269 -3 3 -19 23 -35 45
-59 79 -218 267 -253 298 -7 7 -39 36 -70 65 -164 155 -436 346 -604 425 -220
103 -293 130 -403 147 -72 12 -185 11 -267 -1z"/>
<path d="M3953 18975 c-11 -18 -24 -47 -28 -63 -6 -31 11 -118 28 -140 5 -7 7
-15 4 -19 -3 -3 0 -18 9 -34 8 -16 14 -31 14 -34 -1 -14 13 -63 25 -90 8 -16
28 -68 45 -115 17 -47 35 -92 41 -100 13 -20 15 -28 29 -82 7 -27 17 -48 21
-48 5 0 9 -11 9 -24 0 -14 4 -27 9 -31 6 -3 10 -13 9 -23 0 -9 14 -53 31 -97
17 -44 31 -94 31 -112 0 -17 4 -33 9 -35 6 -1 21 -46 34 -98 14 -52 32 -119
40 -148 8 -28 11 -50 6 -46 -5 3 -9 -1 -9 -10 0 -8 5 -16 11 -18 6 -2 15 -24
19 -48 12 -67 32 -163 38 -180 3 -8 6 -19 8 -25 2 -5 12 -37 24 -69 11 -33 19
-64 18 -70 -1 -6 3 -27 10 -46 6 -19 13 -55 16 -80 2 -25 6 -52 9 -60 3 -8 8
-26 10 -40 3 -14 15 -56 26 -95 11 -38 32 -117 47 -175 14 -58 33 -117 41
-132 7 -15 14 -30 13 -33 0 -3 0 -15 0 -27 0 -19 2 -20 10 -8 8 13 10 12 10
-2 0 -30 1 -32 15 -48 7 -8 16 -25 19 -37 4 -13 11 -23 16 -23 5 0 11 -13 15
-30 4 -16 11 -30 16 -30 5 0 9 -7 9 -16 0 -9 10 -32 21 -51 12 -19 19 -37 16
-40 -3 -3 5 -23 19 -44 13 -21 24 -45 24 -53 0 -7 7 -19 15 -26 9 -7 14 -19
11 -26 -3 -7 -1 -16 4 -19 8 -5 82 -152 101 -202 4 -12 13 -23 19 -23 5 0 10
-5 10 -11 0 -6 11 -24 25 -41 14 -16 25 -36 25 -44 0 -8 4 -14 8 -14 5 0 17
-19 27 -42 10 -24 20 -37 23 -29 2 7 0 16 -5 20 -6 3 -13 29 -16 56 -10 84
-42 246 -97 480 -5 22 -17 81 -26 130 -8 50 -20 115 -26 145 -6 30 -12 64 -14
75 -1 11 -16 67 -33 125 -17 58 -30 112 -31 121 0 9 -9 36 -20 60 -11 24 -20
56 -20 70 0 15 -11 64 -24 110 -13 46 -25 104 -27 129 -1 25 -7 54 -13 65 -5
11 -10 43 -11 70 -1 28 -7 66 -13 85 l-10 35 -1 -34 c-1 -40 -6 -38 -14 7 -5
24 -3 32 8 32 8 0 15 5 15 11 0 5 -4 8 -8 5 -12 -7 -25 5 -45 44 -11 21 -13
28 -4 17 10 -12 17 -15 22 -7 4 6 1 17 -5 25 -6 8 -9 18 -7 22 9 14 -39 229
-93 423 -29 102 -55 199 -59 215 -21 86 -83 219 -110 241 -8 6 -11 18 -8 28 4
9 2 16 -4 16 -5 0 -15 12 -22 28 -6 15 -20 33 -30 41 -10 7 -16 19 -13 26 2 7
-7 23 -22 36 l-27 24 25 -30 25 -30 -32 29 c-17 15 -29 34 -26 41 2 8 -3 25
-12 39 -9 14 -18 32 -19 41 -1 9 -10 25 -19 36 -9 10 -17 24 -17 29 0 6 -4 10
-9 10 -5 0 -16 16 -26 36 -19 40 -132 164 -149 164 -6 -1 -21 -16 -33 -35z"/>
<path d="M35605 18652 c-74 -4 -290 -41 -338 -58 -23 -8 -69 -29 -102 -46 -33
-17 -61 -30 -62 -30 -9 6 -22 -2 -53 -30 -22 -20 -28 -28 -15 -24 11 4 70 21
130 37 177 47 297 61 503 58 l182 -2 36 41 35 41 -24 6 c-27 7 -214 12 -292 7z"/>
<path d="M36463 18418 l-42 -42 100 -52 c461 -242 782 -611 925 -1064 48 -155
46 -150 54 -115 3 17 2 35 -2 42 -5 6 -5 14 1 17 6 4 6 17 -1 36 -5 17 -7 37
-4 46 3 8 2 13 -3 10 -4 -3 -6 17 -3 44 3 37 -2 66 -23 122 -30 80 -69 172
-87 203 -7 11 -18 34 -27 50 -23 45 -107 173 -138 209 -16 18 -39 47 -53 65
-22 30 -164 160 -240 221 -82 65 -206 148 -277 185 -33 18 -71 40 -84 49 -35
24 -50 20 -96 -26z"/>
<path d="M7143 18356 c-41 -26 -41 -36 -3 -36 39 0 103 27 95 39 -3 6 -13 7
-22 4 -9 -4 -14 -2 -10 3 11 18 -28 11 -60 -10z"/>
<path d="M29868 18305 c-3 -22 -13 -71 -23 -110 -9 -38 -17 -79 -17 -90 0 -11
-4 -33 -9 -50 -4 -16 -10 -48 -13 -70 -2 -22 -12 -76 -20 -120 -9 -44 -18 -97
-22 -119 -3 -21 -8 -48 -11 -60 -3 -11 -13 -65 -23 -118 -10 -53 -22 -107 -26
-120 -7 -23 -10 -36 -20 -98 -3 -19 -8 -42 -11 -50 -7 -16 -28 -86 -42 -135
-5 -16 -24 -84 -44 -150 -42 -143 -62 -226 -77 -317 -7 -40 -17 -69 -26 -72
-24 -9 -28 21 -8 62 20 41 20 62 -2 79 -10 7 -19 45 -26 115 -6 56 -15 106
-21 109 -6 4 -7 23 -3 45 3 22 24 156 46 299 22 143 49 316 60 385 31 200 34
239 17 246 -9 3 -14 16 -12 29 1 14 -1 22 -6 19 -11 -6 -19 43 -23 144 -3 81
-10 107 -24 86 -10 -14 -42 -25 -42 -15 0 5 6 12 13 14 7 4 6 6 -5 6 -9 1 -18
6 -20 13 -3 8 -11 9 -24 3 -18 -8 -18 -9 4 -12 35 -7 26 -27 -18 -41 -22 -6
-45 -12 -52 -12 -7 0 -42 -9 -78 -19 -177 -52 -254 -72 -295 -78 -34 -4 -43
-9 -35 -18 12 -15 -8 -35 -39 -38 -11 0 -17 -5 -15 -9 3 -4 -4 -8 -15 -8 -11
0 -23 -5 -27 -11 -3 -6 -15 -9 -25 -6 -24 6 -49 -21 -30 -32 9 -6 5 -10 -13
-15 -14 -3 -26 -13 -26 -21 0 -10 -10 -15 -29 -15 -16 0 -34 -7 -41 -15 -7 -8
-19 -15 -26 -15 -8 0 -14 -4 -14 -10 0 -5 -5 -10 -11 -10 -6 0 -22 -9 -35 -19
-14 -11 -34 -17 -47 -14 -20 4 -21 3 -4 -10 27 -22 21 -38 -10 -31 -16 4 -31
9 -35 11 -12 6 25 43 60 60 18 9 37 24 43 34 8 17 6 19 -20 19 -34 0 -123 -49
-117 -65 2 -5 8 -9 14 -8 6 2 9 -4 5 -13 -4 -11 -9 -12 -16 -5 -17 17 -41 13
-92 -15 -29 -17 -50 -23 -54 -17 -11 18 -53 26 -61 13 -6 -9 -13 -7 -29 9 -26
26 -137 34 -151 11 -3 -5 -28 -8 -55 -6 -28 3 -56 5 -63 5 -7 1 -12 9 -10 19
1 9 -1 23 -6 30 -7 12 -4 12 14 2 18 -10 21 -10 14 2 -5 7 -7 21 -6 31 4 23
-24 22 -45 -3 -17 -20 -63 -28 -63 -12 0 11 45 32 66 32 8 0 12 5 8 11 -3 6
-17 9 -30 6 -13 -2 -22 -1 -21 3 4 17 -99 77 -133 78 -19 0 -36 6 -38 11 -2 6
-21 14 -43 17 -22 4 -42 11 -45 15 -3 5 -19 9 -35 9 -43 0 -32 -25 12 -26 36
-2 154 -43 146 -51 -3 -2 -14 0 -25 6 -12 6 -37 11 -57 11 -23 0 -38 5 -41 15
-4 10 -13 13 -25 10 -10 -3 -32 1 -48 9 -17 9 -37 16 -46 16 -9 0 -23 7 -31
15 -9 8 -32 15 -52 15 -25 0 -32 3 -23 9 11 7 10 11 -5 20 -16 9 -14 10 11 5
17 -4 32 -11 33 -16 2 -4 9 -8 17 -8 7 0 18 -7 25 -15 14 -17 57 -20 80 -5 12
7 11 10 -5 16 -11 4 -24 9 -29 12 -5 3 -6 0 -2 -6 4 -7 0 -12 -10 -12 -10 0
-14 3 -11 7 9 9 -43 43 -66 43 -11 0 -31 9 -47 20 -15 11 -30 17 -33 14 -3 -3
-20 2 -37 11 -19 10 -35 13 -39 8 -9 -15 -41 -24 -41 -12 0 6 -8 8 -18 5 -25
-8 -61 19 -45 34 11 12 37 5 29 -9 -3 -3 3 -7 12 -7 9 -1 26 -4 37 -8 19 -7
19 -7 1 4 -15 10 -16 14 -5 21 11 7 10 9 -4 9 -10 0 -16 4 -13 9 8 13 -19 21
-72 21 -34 0 -43 -3 -32 -10 12 -8 9 -10 -13 -10 -16 0 -26 4 -22 10 3 6 0 10
-9 10 -8 0 -16 -5 -18 -11 -2 -6 -25 -11 -50 -11 -28 -1 -45 -5 -41 -11 3 -5
0 -8 -8 -5 -8 3 -20 -2 -28 -10 -8 -7 -25 -12 -38 -9 -12 2 -23 1 -23 -3 0 -3
-25 -17 -55 -29 l-55 -23 22 -40 c44 -78 244 -239 538 -432 290 -192 531 -413
638 -586 35 -58 82 -162 85 -190 2 -14 6 -30 9 -35 3 -6 4 -19 2 -30 -1 -10
10 -51 26 -90 50 -122 89 -276 105 -415 8 -74 9 -315 2 -365 -4 -22 -9 -76
-12 -120 -3 -44 -17 -145 -32 -225 -14 -80 -27 -161 -29 -180 -3 -19 -9 -55
-14 -80 -5 -25 -21 -108 -36 -185 -14 -77 -36 -189 -49 -250 -20 -92 -35 -167
-71 -350 -2 -11 -8 -40 -14 -65 -18 -83 -81 -382 -135 -645 -30 -143 -86 -413
-125 -600 -39 -187 -116 -556 -171 -820 -55 -264 -108 -520 -119 -570 -56
-265 -77 -368 -164 -785 -53 -250 -120 -574 -151 -720 -31 -146 -70 -332 -87
-415 -16 -82 -31 -157 -33 -165 -6 -27 -107 -524 -111 -550 -2 -14 -9 -45 -14
-70 -6 -25 -28 -133 -50 -240 -117 -582 -177 -881 -240 -1215 -39 -203 -74
-383 -79 -400 -5 -16 -16 -66 -25 -110 -29 -144 -68 -323 -176 -807 -17 -76
-44 -199 -60 -275 -91 -429 -255 -1175 -336 -1533 -25 -107 -49 -216 -54 -241
-15 -77 -59 -250 -81 -317 -12 -35 -19 -65 -17 -67 2 -3 47 7 99 20 210 56
466 151 660 244 58 28 114 51 123 51 30 0 168 30 261 57 209 60 324 142 445
320 67 97 260 490 260 528 0 8 5 17 11 20 6 4 8 13 5 21 -3 8 -2 14 3 14 4 0
11 24 14 54 3 30 13 65 22 79 9 15 12 28 6 31 -5 3 -7 15 -4 26 3 11 10 17 17
13 6 -4 5 0 -2 9 -10 12 -10 17 -1 20 7 2 13 12 15 21 1 9 -2 15 -7 11 -12 -7
-12 -7 6 70 8 35 19 91 24 123 9 53 16 90 21 103 1 3 2 8 1 12 0 5 4 8 10 8 8
0 9 4 0 13 -6 8 -9 31 -6 53 3 21 7 84 9 139 8 205 38 421 60 439 20 16 28 86
10 86 -8 0 -14 -10 -15 -22 0 -13 -9 -43 -19 -68 l-19 -45 -1 45 c0 33 -3 41
-10 30 -5 -8 -10 -29 -10 -46 0 -16 -5 -35 -12 -42 -9 -9 -8 -12 5 -12 9 0 17
-5 17 -10 0 -14 -30 -59 -57 -87 -13 -12 -23 -28 -24 -35 0 -7 -2 -20 -4 -28
-2 -8 -9 -35 -15 -60 -7 -25 -15 -54 -20 -65 -8 -22 -80 -304 -87 -345 -2 -14
-16 -63 -30 -110 -38 -128 -94 -313 -101 -330 -3 -8 -6 -17 -7 -20 -1 -3 -5
-14 -10 -25 -4 -11 -17 -42 -27 -70 -22 -60 -35 -91 -54 -128 -8 -16 -14 -34
-14 -41 0 -7 -9 -23 -20 -36 -17 -19 -21 -20 -26 -7 -5 15 -7 15 -21 1 -13
-12 -13 -20 -4 -40 18 -41 14 -53 -18 -49 -22 3 -30 -1 -34 -16 -3 -12 0 -19
9 -19 8 0 14 -4 14 -9 0 -5 -9 -7 -21 -4 -18 5 -19 11 -14 45 6 35 4 40 -15
45 -12 3 -19 11 -16 18 3 8 -2 16 -10 19 -23 9 -24 8 -18 -21 7 -41 -8 -58
-35 -42 -26 17 -27 25 -2 32 30 7 15 42 -22 53 -22 6 -32 15 -32 28 0 14 -10
22 -34 28 -20 6 -35 17 -38 29 -5 16 -14 19 -69 19 -36 0 -64 -4 -64 -10 0 -5
7 -10 15 -10 8 0 15 -7 15 -15 0 -19 -19 -19 -26 0 -4 8 -14 15 -25 15 -10 0
-30 5 -45 12 -25 12 -26 15 -20 70 6 57 5 58 -19 58 -18 0 -25 5 -25 20 0 14
7 20 21 20 16 0 19 4 14 18 -4 9 -10 27 -12 40 -3 13 -13 22 -25 22 -18 0 -19
6 -15 140 3 92 9 145 17 155 9 11 11 33 6 73 -4 31 -9 75 -11 97 -3 22 -2 34
1 28 13 -29 32 -11 38 35 3 26 9 62 12 81 5 24 3 32 -5 27 -7 -5 -9 -1 -4 10
4 11 8 13 11 6 7 -21 22 -13 22 11 0 12 6 47 14 77 9 34 11 57 5 61 -6 3 -3
11 5 18 32 27 58 101 36 101 -5 0 -10 9 -10 20 0 22 15 27 24 8 3 -7 4 -1 1
14 -3 14 -1 37 4 50 9 21 10 21 11 3 1 -11 4 -14 7 -8 3 9 10 10 24 3 12 -7
19 -7 19 -1 0 5 6 16 13 23 15 15 42 117 33 125 -3 4 4 13 15 21 16 11 18 17
8 22 -10 7 -9 14 5 34 9 14 21 26 27 26 6 0 8 7 5 16 -3 8 -2 12 4 9 6 -3 10
4 10 17 0 13 6 32 13 43 17 26 47 106 47 127 0 9 7 18 15 22 8 3 12 12 9 20
-4 10 8 28 30 50 25 23 32 36 24 39 -9 4 -4 13 14 29 15 12 39 43 54 68 14 25
23 36 20 25 -5 -16 -2 -16 12 4 19 28 42 88 42 112 0 9 10 23 23 31 13 9 30
39 41 74 11 33 26 66 33 75 20 24 16 29 -19 22 -28 -5 -31 -4 -22 8 6 8 23 46
38 84 15 39 33 79 40 90 7 11 16 36 20 55 3 20 14 51 25 70 23 44 84 200 101
260 7 25 17 61 23 80 5 19 14 44 18 55 13 30 40 107 45 130 3 11 16 43 30 70
13 28 36 84 52 125 16 41 39 95 50 120 12 25 42 101 67 170 54 143 111 266
137 294 10 11 18 28 18 38 0 23 25 24 27 1 1 -10 3 -66 5 -126 3 -64 9 -112
16 -119 7 -7 12 -17 12 -22 0 -6 -4 -4 -10 4 -15 23 -22 5 -9 -23 10 -21 8
-53 -9 -164 -28 -182 -30 -203 -20 -203 4 0 8 -9 8 -20 0 -22 -15 -27 -23 -7
-4 7 -6 6 -6 -4 -1 -9 5 -21 12 -27 20 -17 22 -178 2 -186 -11 -4 -15 -20 -15
-56 0 -27 -4 -69 -10 -92 -5 -24 -14 -86 -20 -138 -9 -89 -13 -127 -24 -243
-3 -26 -11 -76 -20 -110 -8 -34 -18 -105 -21 -157 -4 -52 -9 -120 -11 -150
-13 -164 -15 -330 -5 -330 12 0 14 11 16 95 2 152 6 205 15 205 5 0 9 -23 9
-50 -1 -28 1 -54 5 -58 14 -13 25 24 19 61 -4 28 -2 37 7 35 15 -4 45 78 55
150 4 29 11 49 16 46 8 -5 13 20 12 69 0 9 4 17 9 17 4 0 8 11 8 24 0 14 4 27
9 30 4 3 11 24 15 48 4 23 13 56 20 72 8 17 17 58 20 90 4 33 10 64 15 70 5 6
14 40 20 76 6 36 20 99 31 140 21 78 28 108 54 247 9 46 23 100 31 120 8 21
17 49 19 63 13 63 25 102 36 115 8 9 8 15 2 15 -13 0 2 60 29 113 11 21 15 37
9 37 -6 0 -8 5 -5 10 4 6 11 8 16 4 5 -3 9 -2 8 3 -1 4 0 11 1 16 1 4 3 10 4
15 1 4 6 23 11 42 5 19 10 43 11 53 1 9 2 18 4 20 4 5 15 61 60 307 49 272
152 896 274 1660 313 1960 754 4654 986 6020 135 795 164 997 180 1256 12 172
10 267 -2 179z m-2563 -125 c4 -6 -7 -10 -27 -10 -25 0 -29 3 -18 10 19 13 37
13 45 0z m45 -19 c0 -5 -9 -11 -20 -14 -20 -5 -26 3 -13 16 9 10 33 8 33 -2z
m434 -156 c-4 -8 -11 -15 -18 -15 -13 -1 41 -50 55 -50 6 0 7 4 4 10 -4 6 1 7
12 3 35 -12 38 -17 13 -23 -27 -7 -61 6 -98 39 -20 17 -22 22 -10 35 17 20 49
21 42 1z m37 -22 c13 -15 12 -15 -8 -4 -24 12 -29 21 -14 21 5 0 15 -7 22 -17z
m729 -83 c0 -5 -4 -10 -10 -10 -5 0 -10 5 -10 10 0 6 5 10 10 10 6 0 10 -4 10
-10z m-620 -32 c0 -13 -23 -5 -28 10 -2 7 2 10 12 6 9 -3 16 -11 16 -16z m240
-37 c0 -5 -7 -12 -16 -15 -8 -3 -12 -2 -9 3 3 5 -3 12 -12 14 -11 3 -8 5 10 6
15 0 27 -3 27 -8z m-66 -17 c29 -11 17 -24 -23 -24 -44 0 -64 16 -29 23 13 2
26 5 30 6 3 0 13 -2 22 -5z m376 -21 c18 -18 18 -19 -1 -42 -16 -19 -20 -20
-25 -7 -3 8 -3 20 1 26 3 5 -1 10 -9 10 -17 0 -21 12 -9 23 10 11 23 8 43 -10z
m-258 0 c-10 -4 -10 -8 0 -21 11 -14 10 -15 -7 -8 -11 5 -30 11 -42 13 -39 9
-25 23 20 22 23 0 36 -3 29 -6z m48 -8 c7 -8 27 -15 46 -15 18 0 36 -4 39 -10
3 -5 14 -10 23 -9 14 0 14 2 -2 8 -25 10 -6 22 22 14 38 -9 6 -33 -47 -34
l-46 -1 43 -11 c23 -5 42 -13 42 -17 0 -5 9 -6 20 -3 11 3 20 0 20 -6 0 -6 -4
-11 -9 -11 -5 0 -16 -2 -23 -5 -8 -3 -25 3 -38 15 -13 11 -33 20 -45 20 -24 0
-48 21 -43 38 2 6 -6 18 -17 26 -11 8 -15 16 -9 16 6 0 17 -7 24 -15z m1155
-837 c1 -12 -4 -33 -11 -47 -13 -25 -14 -25 -14 -3 0 12 4 22 10 22 5 0 7 14
3 33 -3 17 -2 29 2 24 5 -4 9 -17 10 -29z m2 -85 c-3 -10 -5 -4 -5 12 0 17 2
24 5 18 2 -7 2 -21 0 -30z m-2537 -10274 c0 -11 -6 -19 -14 -19 -11 0 -13 -10
-9 -40 4 -24 2 -40 -5 -40 -14 0 -20 87 -9 133 l10 38 13 -27 c8 -14 14 -35
14 -45z m-143 -331 c-3 -8 -6 -5 -6 6 -1 11 2 17 5 13 3 -3 4 -12 1 -19z m-87
-318 c0 -5 -5 -10 -11 -10 -5 0 -7 5 -4 10 3 6 8 10 11 10 2 0 4 -4 4 -10z
m-30 -225 c0 -16 -6 -25 -15 -25 -18 0 -19 4 -3 30 16 26 18 25 18 -5z m-20
-149 c0 -52 -6 -43 -13 18 -3 30 -1 43 4 35 5 -8 9 -32 9 -53z m-23 -98 c-2
-13 -4 -3 -4 22 0 25 2 35 4 23 2 -13 2 -33 0 -45z m33 -272 c0 -8 -4 -18 -10
-21 -5 -3 -10 3 -10 14 0 12 5 21 10 21 6 0 10 -6 10 -14z m38 -130 c-7 -8
-15 -12 -17 -11 -5 6 10 25 20 25 5 0 4 -6 -3 -14z m52 -46 c0 -5 -4 -10 -10
-10 -5 0 -10 5 -10 10 0 6 5 10 10 10 6 0 10 -4 10 -10z m75 -50 c-3 -5 -11
-10 -16 -10 -6 0 -7 5 -4 10 3 6 11 10 16 10 6 0 7 -4 4 -10z"/>
<path d="M29440 18280 c8 -5 27 -10 42 -10 14 0 29 -6 32 -12 3 -7 5 -4 3 7
-2 16 -11 21 -47 23 -33 2 -41 0 -30 -8z"/>
<path d="M29330 18230 c0 -5 5 -10 10 -10 6 0 10 5 10 10 0 6 -4 10 -10 10 -5
0 -10 -4 -10 -10z"/>
<path d="M27970 17912 c0 -4 9 -14 19 -22 19 -13 19 -14 1 -30 -17 -15 -16
-16 25 -14 23 1 50 6 59 11 14 8 10 12 -22 21 -22 7 -45 19 -52 27 -13 16 -30
20 -30 7z"/>
<path d="M39645 17570 c3 -5 8 -10 11 -10 2 0 4 5 4 10 0 6 -5 10 -11 10 -5 0
-7 -4 -4 -10z"/>
<path d="M24976 17059 c-16 -48 -73 -245 -126 -434 -33 -121 -72 -248 -86
-282 -14 -34 -27 -67 -28 -75 -2 -7 -8 -26 -15 -43 -6 -16 -16 -43 -22 -60 -6
-16 -15 -39 -19 -50 -23 -55 -159 -434 -227 -635 -15 -41 -31 -78 -36 -81 -5
-4 -7 -14 -4 -22 3 -9 0 -21 -8 -27 -7 -6 -18 -30 -23 -53 -17 -73 -69 -207
-77 -199 -5 4 -5 2 -2 -4 9 -15 -17 -76 -38 -94 -9 -7 -14 -19 -11 -26 2 -6
-6 -22 -20 -35 -13 -12 -24 -27 -24 -31 0 -32 -77 -60 -157 -58 -32 2 -71 -3
-86 -9 -16 -6 -34 -11 -41 -11 -8 0 -19 -7 -26 -15 -7 -8 -18 -15 -26 -15 -17
0 -88 -33 -92 -43 -4 -8 -115 -67 -129 -68 -5 0 -14 -4 -21 -8 -36 -20 166
-147 293 -186 101 -30 231 -8 327 55 70 47 150 131 181 191 36 70 117 276 117
297 0 10 14 55 31 102 16 47 32 95 34 107 3 12 10 35 17 50 6 16 12 33 14 38
4 17 105 329 111 345 3 8 8 26 10 39 2 14 8 32 14 42 5 10 9 28 9 41 0 13 4
28 8 33 5 6 15 37 22 70 7 33 19 85 26 115 30 122 103 431 123 520 45 209 47
250 25 470 -6 59 -11 71 -18 49z"/>
<path d="M4771 16154 c0 -11 3 -14 6 -6 3 7 2 16 -1 19 -3 4 -6 -2 -5 -13z"/>
<path d="M33870 15021 c0 -13 74 -78 112 -98 52 -28 144 -23 202 11 25 15 46
31 46 36 0 6 -22 10 -50 10 -27 0 -50 4 -50 8 0 5 -28 9 -62 10 -35 0 -85 6
-113 12 -81 19 -85 19 -85 11z"/>
<path d="M38190 11872 c0 -16 66 -71 102 -86 51 -22 90 -20 150 6 l50 21 -33
18 c-19 10 -45 24 -59 30 -28 14 -210 23 -210 11z"/>
<path d="M7100 9592 c-19 -9 -37 -19 -40 -22 -3 -3 -16 -10 -30 -16 -66 -30
-86 -37 -93 -36 -5 2 -28 -11 -53 -28 -25 -16 -56 -33 -69 -36 -14 -3 -25 -10
-25 -14 0 -7 -23 -17 -60 -25 -8 -2 -16 -9 -18 -14 -2 -6 -8 -11 -13 -11 -13
0 -241 -99 -255 -111 -6 -5 -13 -6 -17 -3 -3 3 -36 -11 -73 -30 -37 -20 -69
-34 -72 -31 -3 3 -11 0 -18 -5 -6 -6 -21 -13 -33 -15 -12 -2 -28 -11 -37 -19
-8 -9 -26 -16 -40 -16 -13 0 -24 -4 -24 -10 0 -5 -8 -10 -18 -10 -9 0 -33 -8
-52 -18 -19 -11 -41 -17 -48 -15 -6 3 -26 -7 -44 -22 -19 -16 -39 -25 -50 -22
-11 3 -27 -3 -38 -16 -11 -11 -20 -17 -20 -13 0 5 -6 4 -12 -1 -13 -10 -74
-32 -93 -34 -5 0 -17 -7 -25 -14 -8 -8 -27 -16 -40 -18 -14 -3 -41 -14 -60
-24 -19 -11 -62 -29 -95 -41 -33 -11 -78 -28 -100 -38 -22 -10 -44 -18 -50
-18 -5 -1 -35 -13 -65 -28 -30 -15 -66 -28 -80 -30 -14 -2 -27 -5 -30 -8 -3
-3 -30 -14 -60 -24 -30 -10 -59 -22 -65 -27 -5 -4 -23 -9 -40 -12 -16 -3 -59
-15 -95 -27 -36 -13 -81 -25 -100 -27 -19 -3 -39 -9 -45 -13 -16 -12 -83 -26
-180 -36 -27 -3 -57 -7 -65 -10 -13 -5 -54 -10 -235 -29 -16 -2 -50 -6 -75
-10 -25 -3 -78 -8 -118 -9 -70 -3 -73 -2 -93 25 -34 48 -105 206 -155 347 -26
72 -49 130 -51 129 -4 -4 75 -266 101 -335 42 -111 112 -226 191 -312 52 -57
65 -83 47 -94 -19 -12 -192 44 -192 62 0 14 -37 30 -50 22 -9 -6 -4 -21 24
-63 48 -73 54 -77 130 -90 51 -9 77 -8 118 2 63 16 151 59 219 107 35 24 73
39 139 53 312 68 804 254 1405 531 581 267 848 385 1084 479 212 85 283 105
373 105 80 1 82 6 8 34 -81 31 -120 40 -205 45 -72 5 -97 2 -125 -11z"/>
<path d="M28207 7957 c-3 -12 -60 -294 -126 -627 -103 -509 -246 -1188 -267
-1266 -5 -19 32 -48 288 -231 728 -520 1761 -1224 2968 -2025 1018 -675 1223
-801 1439 -888 163 -65 276 -85 409 -74 78 6 85 9 123 44 27 25 38 42 33 53
-4 12 -1 17 10 17 68 0 205 133 222 215 3 16 12 53 20 80 8 28 19 70 25 94 22
91 107 138 231 128 63 -5 67 -4 83 20 15 22 21 24 52 18 20 -3 156 -66 302
-139 519 -260 953 -455 1201 -541 69 -24 175 -68 235 -98 125 -63 238 -102
340 -118 80 -13 216 -6 260 12 28 12 24 13 -60 21 -49 4 -120 17 -157 28 -36
11 -73 20 -81 20 -18 0 -158 53 -202 76 -181 96 -245 134 -245 144 0 5 -10 12
-22 16 -13 4 -25 10 -28 14 -5 7 -74 56 -195 139 -64 43 -245 172 -408 290
-65 47 -128 93 -140 101 -101 67 -407 294 -407 301 0 5 -7 9 -16 9 -9 0 -34
15 -57 33 -23 19 -87 64 -142 102 -55 38 -102 72 -105 75 -5 6 -75 57 -124 90
-13 8 -38 27 -57 43 -57 46 -127 97 -134 97 -3 0 -42 27 -86 60 -44 34 -97 71
-117 84 -20 13 -46 32 -57 43 -11 10 -60 45 -110 78 -49 33 -99 69 -112 79
-25 21 -299 209 -458 314 -55 37 -102 69 -105 72 -3 4 -50 36 -105 72 -55 37
-145 97 -200 135 -55 38 -149 103 -210 145 -390 267 -484 332 -607 417 -76 53
-174 121 -219 151 -44 30 -86 60 -92 65 -7 6 -52 38 -102 72 -232 156 -730
501 -1035 718 -69 49 -145 102 -170 119 -25 17 -50 35 -57 41 -6 5 -35 26 -63
45 -28 19 -70 49 -93 66 -49 36 -280 193 -352 241 -27 17 -55 37 -62 42 -6 6
-47 34 -89 63 -43 29 -89 63 -103 76 -13 12 -28 22 -32 22 -8 0 -74 47 -110
79 -8 6 -48 37 -90 69 -112 84 -176 138 -314 267 -11 11 -32 29 -46 40 -14 11
-34 32 -46 47 -21 28 -21 28 -26 5z"/>
<path d="M27741 6604 c0 -11 3 -14 6 -6 3 7 2 16 -1 19 -3 4 -6 -2 -5 -13z"/>
<path d="M27644 6366 c-9 -15 -14 -29 -12 -32 3 -2 13 7 22 22 10 14 15 28 13
31 -3 2 -13 -7 -23 -21z"/>
<path d="M26730 6075 c0 -8 5 -15 10 -15 6 0 10 7 10 15 0 8 -4 15 -10 15 -5
0 -10 -7 -10 -15z"/>
<path d="M26711 6024 c0 -11 3 -14 6 -6 3 7 2 16 -1 19 -3 4 -6 -2 -5 -13z"/>
<path d="M9110 5692 c0 -23 153 -166 257 -240 310 -222 862 -483 1686 -798 95
-36 768 -298 1497 -581 2122 -825 2296 -890 3345 -1255 2209 -768 4182 -1404
5990 -1928 187 -54 482 -142 655 -195 644 -197 932 -257 1226 -256 365 1 599
93 820 322 199 207 359 501 525 964 58 160 200 637 195 652 -3 6 -1 13 4 15 5
2 11 19 14 38 2 19 7 43 11 53 4 9 3 17 -2 17 -9 0 -13 -14 -14 -53 0 -9 -3
-15 -7 -13 -4 3 -8 -3 -9 -12 -2 -28 -9 -51 -16 -58 -4 -4 -7 -16 -7 -26 0
-11 -4 -17 -9 -13 -10 6 -37 -62 -32 -84 1 -8 -2 -10 -11 -5 -10 6 -10 4 1 -9
9 -11 10 -17 2 -17 -6 0 -11 -5 -11 -11 0 -5 6 -7 13 -3 7 4 9 3 4 -2 -5 -5
-14 -9 -20 -9 -7 0 -12 -8 -12 -17 0 -9 -4 -20 -9 -25 -5 -5 -6 -2 -1 6 5 9 4
12 -3 7 -6 -3 -16 -23 -23 -44 -6 -20 -21 -55 -33 -77 -11 -22 -21 -45 -21
-51 0 -6 -7 -21 -15 -35 -16 -24 -53 -116 -63 -154 -29 -104 -161 -393 -233
-506 -13 -21 -24 -41 -24 -44 0 -2 -29 -48 -65 -100 -36 -53 -65 -100 -65
-105 0 -4 -19 -23 -42 -41 -24 -19 -49 -42 -56 -52 -8 -10 -21 -23 -29 -30 -9
-7 -32 -28 -52 -48 -41 -41 -99 -79 -151 -98 -19 -7 -59 -24 -87 -37 -29 -13
-65 -27 -80 -30 -16 -4 -38 -14 -50 -22 -13 -8 -23 -11 -23 -7 0 4 -6 3 -12
-3 -44 -36 -262 -54 -448 -38 -47 4 -109 9 -138 11 -29 3 -83 10 -120 16 -37
6 -83 12 -102 15 -65 8 -145 25 -181 39 -20 8 -39 11 -43 8 -3 -3 -12 0 -20 6
-8 7 -19 10 -24 7 -5 -3 -33 1 -63 10 -78 23 -109 26 -116 9 -3 -8 -10 -12
-15 -9 -13 8 -218 72 -273 85 -22 5 -54 16 -70 24 -17 7 -42 16 -55 19 -14 2
-131 37 -260 75 -129 39 -255 77 -280 85 -25 7 -115 32 -200 56 -85 23 -164
46 -175 51 -11 5 -54 18 -97 29 -62 16 -377 106 -491 140 -15 5 -30 9 -32 9
-3 0 -51 14 -108 31 -56 17 -140 42 -187 56 -47 14 -120 36 -163 50 -43 13
-87 24 -97 24 -10 0 -21 4 -25 9 -3 5 -20 13 -38 16 -17 4 -79 22 -137 40 -97
31 -273 84 -395 120 -27 8 -119 38 -204 65 -85 27 -170 53 -188 56 -18 3 -33
10 -33 15 0 5 -8 9 -17 9 -17 0 -66 15 -453 137 -209 66 -563 179 -605 194
-16 6 -210 71 -430 144 -220 74 -413 139 -430 145 -16 5 -151 51 -300 100
-333 112 -291 98 -530 182 -367 129 -569 199 -660 229 -49 16 -98 34 -109 40
-10 6 -46 19 -80 30 -33 10 -70 23 -81 28 -54 25 -156 61 -172 61 -11 0 -23 4
-28 9 -6 5 -41 19 -80 31 -38 13 -90 29 -115 37 -24 8 -49 18 -55 22 -5 4 -30
13 -55 21 -25 7 -64 21 -87 31 -24 11 -47 19 -53 19 -5 0 -35 12 -67 26 -32
14 -96 39 -143 55 -47 16 -94 34 -105 39 -11 5 -78 30 -150 56 -71 25 -215 79
-318 120 -104 41 -193 74 -198 74 -6 0 -42 13 -81 30 -38 16 -80 32 -92 34
-11 2 -47 16 -79 31 -32 15 -64 28 -72 29 -8 1 -18 5 -21 9 -4 4 -18 7 -31 7
-12 0 -23 4 -23 10 0 5 -3 9 -7 8 -5 -1 -21 5 -38 14 -16 8 -46 19 -65 23 -19
4 -44 13 -55 19 -16 10 -75 34 -105 41 -3 1 -22 9 -42 18 -21 10 -43 17 -50
17 -8 0 -22 6 -33 13 -11 8 -65 31 -120 52 -55 21 -119 46 -142 56 -24 11 -48
19 -54 19 -6 0 -25 6 -42 14 -32 14 -68 28 -77 31 -3 0 -25 10 -50 21 -25 11
-67 29 -95 38 -27 10 -64 25 -82 32 -17 8 -62 24 -100 35 -37 12 -71 26 -75
33 -4 6 -8 7 -8 2 0 -5 -6 -4 -12 2 -7 5 -69 30 -138 56 -69 26 -137 53 -152
62 -16 8 -28 13 -28 10 0 -3 -25 5 -55 19 -30 13 -55 22 -55 19 0 -3 -15 3
-32 14 -18 11 -49 23 -68 27 -19 4 -44 14 -56 21 -11 8 -24 11 -27 7 -4 -3 -7
-1 -7 5 0 7 -9 12 -21 12 -11 0 -45 12 -75 26 -30 14 -60 27 -67 28 -7 1 -30
10 -52 20 -22 10 -48 19 -58 21 -9 2 -23 7 -30 12 -6 4 -16 8 -22 10 -5 1 -46
16 -90 33 -44 17 -88 33 -97 35 -9 2 -37 13 -62 23 -24 11 -47 18 -50 14 -3
-3 -6 0 -6 7 0 7 -4 10 -8 7 -4 -2 -29 6 -55 19 -26 14 -47 22 -47 19 0 -2
-17 4 -38 15 -20 10 -57 24 -81 31 -25 6 -67 23 -95 36 -27 13 -53 24 -58 24
-5 0 -27 9 -51 19 -45 20 -67 28 -80 29 -4 0 -19 8 -33 16 -13 9 -24 13 -24 9
0 -5 -4 -2 -8 5 -5 7 -17 14 -28 17 -26 5 -142 52 -184 74 -19 10 -46 22 -60
26 -30 8 -113 47 -120 57 -3 3 -14 8 -25 10 -11 1 -23 7 -26 11 -3 4 -19 10
-35 13 -16 3 -31 10 -35 15 -3 5 -16 11 -28 14 -13 2 -35 12 -48 20 -13 9 -33
18 -43 20 -30 6 -134 56 -142 68 -4 7 -8 9 -8 4 0 -9 -194 92 -198 104 -2 5
-12 9 -22 9 -10 0 -26 9 -34 21 -8 12 -19 18 -25 14 -6 -3 -11 -2 -11 2 0 5
-13 17 -30 26 -16 10 -30 15 -30 12 0 -6 -58 31 -70 45 -15 16 -100 70 -100
63 0 -4 -7 3 -16 15 -8 12 -21 22 -29 22 -8 0 -19 8 -24 18 -7 11 -11 12 -11
4z"/>
<path d="M26710 5169 c0 -41 0 -41 31 -35 17 3 50 6 73 6 l41 0 -38 20 c-20
11 -44 20 -52 20 -9 0 -18 7 -21 15 -13 32 -34 16 -34 -26z"/>
<path d="M27116 5043 c-11 -27 -6 -33 24 -33 23 0 30 5 30 19 0 23 -46 35 -54
14z"/>
</g>
</svg>
