<?xml version="1.0" encoding="UTF-8"?>
<!DOCTYPE svg PUBLIC "-//W3C//DTD SVG 1.1//EN" "http://www.w3.org/Graphics/SVG/1.1/DTD/svg11.dtd">
<svg xmlns="http://www.w3.org/2000/svg" version="1.1" width="512px" height="512px" style="shape-rendering:geometricPrecision; text-rendering:geometricPrecision; image-rendering:optimizeQuality; fill-rule:evenodd; clip-rule:evenodd" xmlns:xlink="http://www.w3.org/1999/xlink">
<g><path style="opacity:0.926" fill="#b0bdc4" d="M 220.5,63.5 C 207.167,63.5 193.833,63.5 180.5,63.5C 190.789,59.5686 201.289,55.9019 212,52.5C 215.737,55.4118 218.571,59.0785 220.5,63.5 Z"/></g>
<g><path style="opacity:0.978" fill="#3a8e3d" d="M 383.5,53.5 C 394.364,55.766 404.031,60.4327 412.5,67.5C 412.5,68.1667 412.833,68.5 413.5,68.5C 423.11,82.9183 427.776,98.9183 427.5,116.5C 426.88,125.51 426.214,134.51 425.5,143.5C 411.186,204.459 384.353,259.126 345,307.5C 329.618,325.223 312.118,340.389 292.5,353C 285.408,356.546 278.408,360.046 271.5,363.5C 260.603,367.305 249.603,370.305 238.5,372.5C 203.919,376.746 182.086,362.079 173,328.5C 167.451,302.761 168.951,277.428 177.5,252.5C 203.954,179.738 247.954,120.072 309.5,73.5C 325.706,63.0398 343.373,56.2065 362.5,53C 369.58,52.2055 376.58,52.3722 383.5,53.5 Z M 381.5,64.5 C 395.015,66.6698 404.515,74.0032 410,86.5C 412.606,92.9232 414.272,99.5899 415,106.5C 415.515,116.843 415.349,127.177 414.5,137.5C 407.492,137.666 400.492,137.5 393.5,137C 390.318,133.651 386.985,130.484 383.5,127.5C 380.182,130.317 377.015,133.317 374,136.5C 373.502,133.183 373.335,129.85 373.5,126.5C 362.791,123.375 352.124,120.042 341.5,116.5C 336.88,119.783 332.547,123.449 328.5,127.5C 322.167,127.5 315.833,127.5 309.5,127.5C 309.5,123.833 309.5,120.167 309.5,116.5C 305.5,116.5 301.5,116.5 297.5,116.5C 320.167,90.5023 348.167,73.1689 381.5,64.5 Z M 189.5,255.5 C 192.167,255.5 194.833,255.5 197.5,255.5C 188.473,283.129 188.307,310.796 197,338.5C 199.867,345.508 203.701,351.842 208.5,357.5C 198.06,352.554 190.893,344.554 187,333.5C 179.123,307.218 179.956,281.218 189.5,255.5 Z M 206.5,266.5 C 208.599,269.856 210.599,273.356 212.5,277C 214.473,277.495 216.473,277.662 218.5,277.5C 221.03,284.033 225.364,289.033 231.5,292.5C 233.115,295.45 235.115,298.116 237.5,300.5C 236.347,302.807 235.18,305.14 234,307.5C 233.333,315.167 233.333,322.833 234,330.5C 237.5,334 241,337.5 244.5,341C 248.167,341.333 251.833,341.667 255.5,342C 258.39,346.05 261.057,350.217 263.5,354.5C 254.75,357.604 245.75,359.604 236.5,360.5C 219.139,354.631 208.639,342.631 205,324.5C 201.361,305.052 201.861,285.719 206.5,266.5 Z"/></g>
<g><path style="opacity:0.962" fill="#fec107" d="M 383.5,53.5 C 419.916,49.0612 441.083,65.0612 447,101.5C 448.417,120.024 447.25,138.357 443.5,156.5C 439.264,154.555 435.597,151.888 432.5,148.5C 436.824,131.401 437.324,114.068 434,96.5C 431.992,87.4986 427.825,79.6653 421.5,73C 419.183,70.8431 416.516,69.3431 413.5,68.5C 412.833,68.5 412.5,68.1667 412.5,67.5C 404.031,60.4327 394.364,55.766 383.5,53.5 Z"/></g>
<g><path style="opacity:0.991" fill="#ebeef0" d="M 88.5,73.5 C 93.1575,91.3069 98.3242,108.974 104,126.5C 106.779,111.776 109.612,97.1089 112.5,82.5C 113.518,76.2413 114.851,70.0747 116.5,64C 123.826,63.5003 131.159,63.3337 138.5,63.5C 138.212,66.9389 137.546,70.2722 136.5,73.5C 129.816,105.419 123.316,137.419 117,169.5C 114.959,170.423 112.792,170.756 110.5,170.5C 105.5,170.5 100.5,170.5 95.5,170.5C 93.6091,162.579 91.2758,154.913 88.5,147.5C 85.2934,134.216 81.2934,121.216 76.5,108.5C 72.273,127.8 68.1063,147.134 64,166.5C 63.8784,168.437 63.045,169.77 61.5,170.5C 54.8002,170.83 48.1335,170.497 41.5,169.5C 49.0135,134.266 56.0135,98.9324 62.5,63.5C 70.1955,63.1692 77.8622,63.5025 85.5,64.5C 86.6594,67.4814 87.6594,70.4814 88.5,73.5 Z"/></g>
<g><path style="opacity:0.998" fill="#ebeef0" d="M 180.5,63.5 C 193.833,63.5 207.167,63.5 220.5,63.5C 221.5,63.5 222.5,63.5 223.5,63.5C 223.5,64.8333 223.5,66.1667 223.5,67.5C 221.169,72.801 219.835,78.4676 219.5,84.5C 205.151,84.1674 190.818,84.5007 176.5,85.5C 174.653,92.4028 173.319,99.4028 172.5,106.5C 179.167,106.5 185.833,106.5 192.5,106.5C 199.167,106.5 205.833,106.5 212.5,106.5C 211.949,109.807 211.616,113.14 211.5,116.5C 210.26,119.647 209.26,122.98 208.5,126.5C 194.85,127.499 181.183,127.833 167.5,127.5C 165.195,140.524 162.695,153.524 160,166.5C 159.878,168.437 159.045,169.77 157.5,170.5C 151.167,170.5 144.833,170.5 138.5,170.5C 143.654,141.064 149.321,111.731 155.5,82.5C 155.5,81.1667 155.5,79.8333 155.5,78.5C 156.167,78.5 156.5,78.1667 156.5,77.5C 156.5,76.1667 156.5,74.8333 156.5,73.5C 157.785,70.4115 158.451,67.0781 158.5,63.5C 165.833,63.5 173.167,63.5 180.5,63.5 Z"/></g>
<g><path style="opacity:0.989" fill="#afbdc4" d="M 309.5,73.5 C 247.954,120.072 203.954,179.738 177.5,252.5C 171.535,247.036 165.702,241.37 160,235.5C 159.5,228.174 159.334,220.841 159.5,213.5C 152.159,213.334 144.826,213.5 137.5,214C 134.5,217 131.5,220 128.5,223C 120.841,223.5 113.174,223.666 105.5,223.5C 105.5,220.167 105.5,216.833 105.5,213.5C 99.4908,213.666 93.4908,213.499 87.5,213C 80.3187,205.986 73.3187,198.819 66.5,191.5C 68.8586,188.149 71.1919,184.815 73.5,181.5C 76.6289,181.181 79.4622,180.181 82,178.5C 83.9682,167.991 86.1348,157.658 88.5,147.5C 91.2758,154.913 93.6091,162.579 95.5,170.5C 100.5,170.5 105.5,170.5 110.5,170.5C 111.341,173.519 112.341,176.519 113.5,179.5C 120.803,180.497 128.137,180.831 135.5,180.5C 141.084,148.078 147.251,115.744 154,83.5C 154.383,82.944 154.883,82.6107 155.5,82.5C 149.321,111.731 143.654,141.064 138.5,170.5C 144.833,170.5 151.167,170.5 157.5,170.5C 157.167,173.833 156.833,177.167 156.5,180.5C 163.532,180.83 170.532,180.497 177.5,179.5C 180.68,165.932 183.347,152.265 185.5,138.5C 199.167,138.5 212.833,138.5 226.5,138.5C 227.705,131.142 229.038,123.809 230.5,116.5C 224.167,116.5 217.833,116.5 211.5,116.5C 211.616,113.14 211.949,109.807 212.5,106.5C 205.833,106.5 199.167,106.5 192.5,106.5C 193.167,102.833 193.833,99.1667 194.5,95.5C 208.833,95.5 223.167,95.5 237.5,95.5C 237.674,92.1262 238.174,88.7928 239,85.5C 239.383,84.944 239.883,84.6107 240.5,84.5C 245.5,84.5 250.5,84.5 255.5,84.5C 255.5,80.8333 255.5,77.1667 255.5,73.5C 259.182,73.3347 262.848,73.5014 266.5,74C 269.833,77.3333 273.167,80.6667 276.5,84C 280.211,84.8253 283.878,84.6586 287.5,83.5C 290.675,76.4772 294.341,69.8105 298.5,63.5C 302.187,66.8554 305.853,70.1887 309.5,73.5 Z"/></g>
<g><path style="opacity:0.973" fill="#fdc008" d="M 381.5,64.5 C 348.167,73.1689 320.167,90.5023 297.5,116.5C 294.482,116.665 291.482,116.498 288.5,116C 298.833,105.667 309.167,95.3333 319.5,85C 318.748,84.3292 318.414,83.4959 318.5,82.5C 337.117,68.4082 358.117,62.4082 381.5,64.5 Z"/></g>
<g><path style="opacity:0.978" fill="#7c949f" d="M 88.5,73.5 C 93.544,73.1725 98.544,73.5059 103.5,74.5C 104.273,77.4308 105.273,80.2641 106.5,83C 108.488,83.1805 110.488,83.0138 112.5,82.5C 109.612,97.1089 106.779,111.776 104,126.5C 98.3242,108.974 93.1575,91.3069 88.5,73.5 Z"/></g>
<g><path style="opacity:0.994" fill="#78909c" d="M 136.5,73.5 C 143.167,73.5 149.833,73.5 156.5,73.5C 156.5,74.8333 156.5,76.1667 156.5,77.5C 155.833,77.5 155.5,77.8333 155.5,78.5C 155.5,79.8333 155.5,81.1667 155.5,82.5C 154.883,82.6107 154.383,82.944 154,83.5C 147.251,115.744 141.084,148.078 135.5,180.5C 128.137,180.831 120.803,180.497 113.5,179.5C 112.341,176.519 111.341,173.519 110.5,170.5C 112.792,170.756 114.959,170.423 117,169.5C 123.316,137.419 129.816,105.419 136.5,73.5 Z"/></g>
<g><path style="opacity:0.99" fill="#7b939e" d="M 223.5,67.5 C 224.702,69.3925 226.035,71.2258 227.5,73C 232.155,73.4992 236.821,73.6658 241.5,73.5C 241.276,77.1788 240.942,80.8455 240.5,84.5C 239.883,84.6107 239.383,84.944 239,85.5C 238.174,88.7928 237.674,92.1262 237.5,95.5C 223.167,95.5 208.833,95.5 194.5,95.5C 193.833,99.1667 193.167,102.833 192.5,106.5C 185.833,106.5 179.167,106.5 172.5,106.5C 173.319,99.4028 174.653,92.4028 176.5,85.5C 190.818,84.5007 205.151,84.1674 219.5,84.5C 219.835,78.4676 221.169,72.801 223.5,67.5 Z"/></g>
<g><path style="opacity:0.993" fill="#afbdc3" d="M 318.5,82.5 C 318.414,83.4959 318.748,84.3292 319.5,85C 309.167,95.3333 298.833,105.667 288.5,116C 291.482,116.498 294.482,116.665 297.5,116.5C 301.5,116.5 305.5,116.5 309.5,116.5C 309.5,120.167 309.5,123.833 309.5,127.5C 277.178,132.235 252.678,148.568 236,176.5C 221.008,201.486 213.341,228.486 213,257.5C 214.215,264.36 216.048,271.027 218.5,277.5C 216.473,277.662 214.473,277.495 212.5,277C 210.599,273.356 208.599,269.856 206.5,266.5C 206.201,262.895 205.035,259.561 203,256.5C 201.301,255.594 199.467,255.261 197.5,255.5C 194.833,255.5 192.167,255.5 189.5,255.5C 188.957,255.44 188.624,255.107 188.5,254.5C 212.524,188.237 251.857,133.07 306.5,89C 310.183,86.1282 314.183,83.9616 318.5,82.5 Z"/></g>
<g><path style="opacity:0.99" fill="#79919d" d="M 88.5,147.5 C 86.1348,157.658 83.9682,167.991 82,178.5C 79.4622,180.181 76.6289,181.181 73.5,181.5C 68.8333,181.5 64.1667,181.5 59.5,181.5C 60.1667,177.833 60.8333,174.167 61.5,170.5C 63.045,169.77 63.8784,168.437 64,166.5C 68.1063,147.134 72.273,127.8 76.5,108.5C 81.2934,121.216 85.2934,134.216 88.5,147.5 Z"/></g>
<g><path style="opacity:0.992" fill="#afbdc4" d="M 414.5,137.5 C 401.462,200.572 374.295,256.572 333,305.5C 318.533,321.648 302.033,335.148 283.5,346C 277.159,349.673 270.492,352.506 263.5,354.5C 261.057,350.217 258.39,346.05 255.5,342C 251.833,341.667 248.167,341.333 244.5,341C 241,337.5 237.5,334 234,330.5C 233.333,322.833 233.333,315.167 234,307.5C 235.18,305.14 236.347,302.807 237.5,300.5C 241.953,302.89 246.619,305.056 251.5,307C 278.553,311.314 302.22,304.314 322.5,286C 331.417,277.327 338.75,267.494 344.5,256.5C 339.208,255.505 333.875,255.172 328.5,255.5C 330.489,252.194 332.489,248.861 334.5,245.5C 322.167,244.167 309.833,244.167 297.5,245.5C 289.982,257.36 279.315,264.36 265.5,266.5C 261.458,266.48 257.792,265.48 254.5,263.5C 255.169,253.699 257.503,244.199 261.5,235C 293.738,234.829 325.905,234.329 358,233.5C 369.195,210.392 373.862,186.059 372,160.5C 370.21,153.247 366.21,147.581 360,143.5C 359.601,143.728 359.435,144.062 359.5,144.5C 356.642,137.817 351.642,133.317 344.5,131C 339.046,129.745 333.713,128.578 328.5,127.5C 332.547,123.449 336.88,119.783 341.5,116.5C 352.124,120.042 362.791,123.375 373.5,126.5C 373.335,129.85 373.502,133.183 374,136.5C 377.015,133.317 380.182,130.317 383.5,127.5C 386.985,130.484 390.318,133.651 393.5,137C 400.492,137.5 407.492,137.666 414.5,137.5 Z"/></g>
<g><path style="opacity:1" fill="#79919d" d="M 211.5,116.5 C 217.833,116.5 224.167,116.5 230.5,116.5C 229.038,123.809 227.705,131.142 226.5,138.5C 212.833,138.5 199.167,138.5 185.5,138.5C 183.347,152.265 180.68,165.932 177.5,179.5C 170.532,180.497 163.532,180.83 156.5,180.5C 156.833,177.167 157.167,173.833 157.5,170.5C 159.045,169.77 159.878,168.437 160,166.5C 162.695,153.524 165.195,140.524 167.5,127.5C 181.183,127.833 194.85,127.499 208.5,126.5C 209.26,122.98 210.26,119.647 211.5,116.5 Z"/></g>
<g><path style="opacity:0.999" fill="#fefefe" d="M 309.5,127.5 C 315.833,127.5 322.167,127.5 328.5,127.5C 333.713,128.578 339.046,129.745 344.5,131C 351.642,133.317 356.642,137.817 359.5,144.5C 362.34,153.591 363.174,162.924 362,172.5C 359.494,189.849 354.661,206.516 347.5,222.5C 315.167,223.167 282.833,223.833 250.5,224.5C 247.325,232.034 245.325,239.867 244.5,248C 244.456,255.396 247.789,260.562 254.5,263.5C 257.792,265.48 261.458,266.48 265.5,266.5C 279.315,264.36 289.982,257.36 297.5,245.5C 309.833,244.167 322.167,244.167 334.5,245.5C 332.489,248.861 330.489,252.194 328.5,255.5C 311.105,282.202 286.438,296.535 254.5,298.5C 246.277,298.524 238.61,296.524 231.5,292.5C 225.364,289.033 221.03,284.033 218.5,277.5C 216.048,271.027 214.215,264.36 213,257.5C 213.341,228.486 221.008,201.486 236,176.5C 252.678,148.568 277.178,132.235 309.5,127.5 Z"/></g>
<g><path style="opacity:0.99" fill="#afbdc4" d="M 425.5,143.5 C 427.531,145.522 429.865,147.189 432.5,148.5C 435.597,151.888 439.264,154.555 443.5,156.5C 448.431,158.931 453.765,160.264 459.5,160.5C 462.667,166.833 465.833,173.167 469,179.5C 469.667,187.167 469.667,194.833 469,202.5C 455,216.5 441,230.5 427,244.5C 426.667,256.167 426.333,267.833 426,279.5C 422.667,289.5 419.333,299.5 416,309.5C 406,322.833 396,336.167 386,349.5C 385.163,351.007 383.996,351.507 382.5,351C 379.333,347.833 376.167,344.667 373,341.5C 369.833,344.667 366.667,347.833 363.5,351C 359.5,351.333 355.5,351.667 351.5,352C 341,359.167 330.5,366.333 320,373.5C 319.667,384.5 319.333,395.5 319,406.5C 308.667,416.833 298.333,427.167 288,437.5C 287.667,441.167 287.333,444.833 287,448.5C 283.667,451.833 280.333,455.167 277,458.5C 276.667,454.833 276.333,451.167 276,447.5C 265.319,436.986 254.819,426.319 244.5,415.5C 254.819,404.681 265.319,394.014 276,383.5C 276.963,378.58 276.463,373.913 274.5,369.5C 273.471,367.483 272.471,365.483 271.5,363.5C 278.408,360.046 285.408,356.546 292.5,353C 312.118,340.389 329.618,325.223 345,307.5C 384.353,259.126 411.186,204.459 425.5,143.5 Z"/></g>
<g><path style="opacity:1" fill="#79919d" d="M 254.5,263.5 C 247.789,260.562 244.456,255.396 244.5,248C 245.325,239.867 247.325,232.034 250.5,224.5C 282.833,223.833 315.167,223.167 347.5,222.5C 354.661,206.516 359.494,189.849 362,172.5C 363.174,162.924 362.34,153.591 359.5,144.5C 359.435,144.062 359.601,143.728 360,143.5C 366.21,147.581 370.21,153.247 372,160.5C 373.862,186.059 369.195,210.392 358,233.5C 325.905,234.329 293.738,234.829 261.5,235C 257.503,244.199 255.169,253.699 254.5,263.5 Z"/></g>
<g><path style="opacity:1" fill="#7a919d" d="M 330.5,170.5 C 311.467,170.187 295.8,177.187 283.5,191.5C 277.158,191.666 270.825,191.5 264.5,191C 275.157,174.34 290.157,164.006 309.5,160C 314.167,159.333 318.833,159.333 323.5,160C 328.849,161.512 331.183,165.012 330.5,170.5 Z"/></g>
<g><path style="opacity:1" fill="#afbdc4" d="M 330.5,170.5 C 329.455,177.638 327.788,184.638 325.5,191.5C 311.5,191.5 297.5,191.5 283.5,191.5C 295.8,177.187 311.467,170.187 330.5,170.5 Z"/></g>
<g><path style="opacity:0.964" fill="#fec108" d="M 197.5,255.5 C 199.467,255.261 201.301,255.594 203,256.5C 205.035,259.561 206.201,262.895 206.5,266.5C 201.861,285.719 201.361,305.052 205,324.5C 208.639,342.631 219.139,354.631 236.5,360.5C 227.286,363.694 218.286,363.027 209.5,358.5C 209.5,357.833 209.167,357.5 208.5,357.5C 203.701,351.842 199.867,345.508 197,338.5C 188.307,310.796 188.473,283.129 197.5,255.5 Z"/></g>
<g><path style="opacity:0.998" fill="#79919d" d="M 328.5,255.5 C 333.875,255.172 339.208,255.505 344.5,256.5C 338.75,267.494 331.417,277.327 322.5,286C 302.22,304.314 278.553,311.314 251.5,307C 246.619,305.056 241.953,302.89 237.5,300.5C 235.115,298.116 233.115,295.45 231.5,292.5C 238.61,296.524 246.277,298.524 254.5,298.5C 286.438,296.535 311.105,282.202 328.5,255.5 Z"/></g>
<g><path style="opacity:0.934" fill="#f6bf0f" d="M 271.5,363.5 C 272.471,365.483 273.471,367.483 274.5,369.5C 262.639,372.62 250.639,373.62 238.5,372.5C 249.603,370.305 260.603,367.305 271.5,363.5 Z"/></g>
</svg>
